<svg viewBox="0 0 160 160" xmlns="http://www.w3.org/2000/svg">
  <defs>
    <linearGradient id="bg5" x1="0" y1="0" x2="1" y2="1">
      <stop offset="0%" stop-color="#18181b" />
      <stop offset="100%" stop-color="#e11d48" />
    </linearGradient>
    <linearGradient id="skin5" x1="0" y1="0" x2="0" y2="1">
      <stop offset="0%" stop-color="#ffedd5" />
      <stop offset="100%" stop-color="#f97316" />
    </linearGradient>
  </defs>
  <circle cx="80" cy="80" r="76" fill="url(#bg5)" stroke="#fb7185" stroke-width="2.5" />
  <!-- Gamepad Pixel Motifs in BG -->
  <rect x="30" y="45" width="6" height="6" fill="#fb7185" opacity="0.4" />
  <rect x="36" y="51" width="6" height="6" fill="#fb7185" opacity="0.4" />
  <rect x="124" y="45" width="6" height="6" fill="#fb7185" opacity="0.4" />
  <rect x="118" y="51" width="6" height="6" fill="#fb7185" opacity="0.4" />
  <!-- Body / Gamer Hoodie -->
  <path d="M28 148c0-30 22-42 52-42s52 12 52 42z" fill="#09090b" />
  <path d="M52 114l28 20 28-20z" fill="#e11d48" opacity="0.8" />
  <!-- Neck -->
  <rect x="71" y="88" width="18" height="20" rx="6" fill="#f97316" />
  <!-- Head -->
  <ellipse cx="80" cy="72" rx="27" ry="30" fill="url(#skin5)" />
  <!-- Modern Anime-style hair -->
  <path d="M50 62c0-18 12-30 30-30 18 0 28 10 28 26-4-6-12-8-18-6-4 1-8 5-14 3-8-2-16-1-26 7z" fill="#27272a" />
  <!-- Gaming Headset with Glow -->
  <path d="M46 72c0-22 14-36 34-36s34 14 34 36" stroke="#fb7185" stroke-width="5" stroke-linecap="round" fill="none" />
  <rect x="42" y="66" width="10" height="20" rx="4" fill="#e11d48" stroke="#ffffff" stroke-width="1.5" />
  <rect x="108" y="66" width="10" height="20" rx="4" fill="#e11d48" stroke="#ffffff" stroke-width="1.5" />
  <!-- Headset Mic -->
  <path d="M48 84c4 10 18 12 26 10" stroke="#fb7185" stroke-width="2" stroke-linecap="round" fill="none" />
  <circle cx="76" cy="94" r="2.5" fill="#38bdf8" />
  <!-- Eyes -->
  <ellipse cx="70" cy="72" rx="3.5" ry="4.5" fill="#09090b" />
  <ellipse cx="90" cy="72" rx="3.5" ry="4.5" fill="#09090b" />
  <circle cx="71.5" cy="70.5" r="1.2" fill="#ffffff" />
  <circle cx="91.5" cy="70.5" r="1.2" fill="#ffffff" />
  <!-- Eyebrows -->
  <path d="M64 64c3-2 8-2 11 0" stroke="#09090b" stroke-width="2.5" stroke-linecap="round" fill="none" />
  <path d="M85 64c3-2 8-2 11 0" stroke="#09090b" stroke-width="2.5" stroke-linecap="round" fill="none" />
  <!-- Smile -->
  <path d="M74 86c3 3 9 3 12 0" stroke="#c2410c" stroke-width="2" stroke-linecap="round" fill="none" />
</svg>