<svg viewBox="0 0 160 160" xmlns="http://www.w3.org/2000/svg">
  <defs>
    <linearGradient id="bg8" x1="0" y1="0" x2="1" y2="1">
      <stop offset="0%" stop-color="#431407" />
      <stop offset="100%" stop-color="#f97316" />
    </linearGradient>
    <linearGradient id="skin8" x1="0" y1="0" x2="0" y2="1">
      <stop offset="0%" stop-color="#ffedd5" />
      <stop offset="100%" stop-color="#fed7aa" />
    </linearGradient>
    <linearGradient id="hair8" x1="0" y1="0" x2="1" y2="1">
      <stop offset="0%" stop-color="#7c2d12" />
      <stop offset="100%" stop-color="#451a03" />
    </linearGradient>
  </defs>
  <circle cx="80" cy="80" r="76" fill="url(#bg8)" stroke="#fdba74" stroke-width="2.5" />
  <!-- Palette / Figma vector node icons in BG -->
  <circle cx="35" cy="45" r="4" fill="#fdba74" opacity="0.5" />
  <circle cx="125" cy="45" r="4" fill="#fb923c" opacity="0.5" />
  <!-- Body / Creative Artist Turtleneck -->
  <path d="M28 148c0-30 22-42 52-42s52 12 52 42z" fill="#1c1917" />
  <path d="M64 106c6 4 10 4 16 4s10 0 16-4v8c-6 4-10 4-16 4s-10 0-16-4z" fill="#f97316" opacity="0.7" />
  <!-- Neck -->
  <rect x="71" y="86" width="18" height="22" rx="4" fill="#fed7aa" />
  <!-- Long Flowing Modern Hair behind -->
  <path d="M44 68c0 30 6 52 12 60h48c6-8 12-30 12-60 0-26-16-38-36-38s-36 12-36 38z" fill="url(#hair8)" />
  <!-- Head -->
  <ellipse cx="80" cy="72" rx="25" ry="29" fill="url(#skin8)" />
  <!-- Stylish Bangs / Fringe -->
  <path d="M55 58c6-10 16-16 25-16s20 6 25 16c-6-4-15-6-25-6s-19 2-25 6z" fill="#451a03" />
  <path d="M54 62c4 8 6 18 6 24M106 62c-4 8-6 18-6 24" stroke="#451a03" stroke-width="5" stroke-linecap="round" fill="none" />
  <!-- Eyes with expressive lashes -->
  <ellipse cx="70" cy="71" rx="3" ry="4" fill="#451a03" />
  <ellipse cx="90" cy="71" rx="3" ry="4" fill="#451a03" />
  <circle cx="71" cy="69.5" r="1.2" fill="#ffffff" />
  <circle cx="91" cy="69.5" r="1.2" fill="#ffffff" />
  <path d="M66 68l-3-2M94 68l3-2" stroke="#451a03" stroke-width="1.6" stroke-linecap="round" />
  <!-- Eyebrows -->
  <path d="M64 63c3-2 8-2 11 0" stroke="#451a03" stroke-width="2" stroke-linecap="round" fill="none" />
  <path d="M85 63c3-2 8-2 11 0" stroke="#451a03" stroke-width="2" stroke-linecap="round" fill="none" />
  <!-- Smile -->
  <path d="M74 84c3 3 9 3 12 0" stroke="#ea580c" stroke-width="2" stroke-linecap="round" fill="none" />
  <!-- Blush -->
  <circle cx="64" cy="78" r="4" fill="#f97316" opacity="0.35" />
  <circle cx="96" cy="78" r="4" fill="#f97316" opacity="0.35" />
  <!-- Designer Stylus tucked in hair -->
  <line x1="102" y1="46" x2="114" y2="62" stroke="#f97316" stroke-width="2.5" stroke-linecap="round" />
  <circle cx="102" cy="46" r="2" fill="#fdba74" />
</svg>